<svg width="19" height="15" viewBox="0 0 19 15" fill="none" xmlns="http://www.w3.org/2000/svg"><path d="M15.564 6.74997L1.62451 6.74997C1.4256 6.74997 1.23483 6.82899 1.09418 6.96964C0.953529 7.11029 0.874512 7.30106 0.874512 7.49997C0.874512 7.69888 0.953529 7.88965 1.09418 8.0303C1.23483 8.17095 1.4256 8.24997 1.62451 8.24997L15.564 8.24997L10.0935 13.719C9.95268 13.8598 9.87356 14.0508 9.87356 14.25C9.87356 14.4491 9.95268 14.6401 10.0935 14.781C10.2343 14.9218 10.4253 15.0009 10.6245 15.0009C10.8237 15.0009 11.0147 14.9218 11.1555 14.781L17.9055 8.03097C17.9754 7.9613 18.0308 7.87854 18.0686 7.78742C18.1064 7.6963 18.1259 7.59862 18.1259 7.49997C18.1259 7.40132 18.1064 7.30364 18.0686 7.21252C18.0308 7.1214 17.9754 7.03864 17.9055 6.96897L11.1555 0.218971C11.0147 0.0781407 10.8237 -0.000976563 10.6245 -0.000976563C10.4253 -0.000976563 10.2343 0.0781407 10.0935 0.218971C9.95268 0.359801 9.87356 0.550807 9.87356 0.749971C9.87356 0.949134 9.95268 1.14014 10.0935 1.28097L15.564 6.74997Z" fill="#6C7178"></path></svg>