<svg width="24" height="24" viewBox="0 0 24 24" fill="none" xmlns="http://www.w3.org/2000/svg">
<path d="M18.9932 2H5.27891C4.73789 2 4.29932 2.44772 4.29932 3V21C4.29932 21.5523 4.73789 22 5.27891 22H18.9932C19.5342 22 19.9728 21.5523 19.9728 21V3C19.9728 2.44772 19.5342 2 18.9932 2Z" stroke-width="2"/>
<path d="M4.29932 7.75H19.9728" stroke-width="2" stroke-linecap="round" stroke-linejoin="round"/>
<path d="M14.5749 5C14.5749 5.28591 14.3505 5.5 14.0953 5.5C13.8401 5.5 13.6157 5.28591 13.6157 5C13.6157 4.71409 13.8401 4.5 14.0953 4.5C14.3505 4.5 14.5749 4.71409 14.5749 5Z"/>
<path d="M17.5134 5C17.5134 5.28591 17.289 5.5 17.0338 5.5C16.7786 5.5 16.5542 5.28591 16.5542 5C16.5542 4.71409 16.7786 4.5 17.0338 4.5C17.289 4.5 17.5134 4.71409 17.5134 5Z"/>
<path d="M12.1361 18.5C14.0296 18.5 15.5647 16.933 15.5647 15C15.5647 13.067 14.0296 11.5 12.1361 11.5C10.2425 11.5 8.70752 13.067 8.70752 15C8.70752 16.933 10.2425 18.5 12.1361 18.5Z" stroke-width="2"/>
</svg>
