<svg xmlns:xlink="http://www.w3.org/1999/xlink" xmlns="http://www.w3.org/2000/svg" width="140" height="50" viewBox="0 0 140 50" fill="none">
<rect width="140" height="50" rx="8" fill="#1D242F"/>
<path d="M29.7973 25.5804C29.819 23.8994 30.7217 22.3088 32.1539 21.4283C31.2504 20.138 29.7371 19.3199 28.1627 19.2706C26.4835 19.0944 24.8555 20.2754 23.9998 20.2754C23.1275 20.2754 21.81 19.2881 20.3913 19.3173C18.5421 19.3771 16.8181 20.4284 15.9184 22.0452C13.9844 25.3936 15.427 30.3146 17.2796 33.0213C18.2065 34.3466 19.2898 35.8271 20.7072 35.7746C22.0943 35.717 22.6123 34.8901 24.2866 34.8901C25.9454 34.8901 26.4314 35.7746 27.8776 35.7412C29.366 35.717 30.3038 34.4099 31.1981 33.072C31.8641 32.1277 32.3766 31.084 32.7166 29.9795C30.9674 29.2397 29.7994 27.4795 29.7973 25.5804Z" fill="white"/>
<path d="M27.0656 17.4906C27.8772 16.5164 28.277 15.2642 28.1802 14C26.9403 14.1302 25.7951 14.7228 24.9726 15.6596C24.1683 16.5749 23.7497 17.8051 23.8289 19.021C25.0692 19.0338 26.2885 18.4573 27.0656 17.4906Z" fill="white"/>
<path d="M41.2 19.18H41.95C42.0767 18.9267 42.1833 18.6133 42.27 18.24C42.3567 17.8667 42.4233 17.4667 42.47 17.04C42.5167 16.6067 42.55 16.1633 42.57 15.71C42.59 15.25 42.6 14.8133 42.6 14.4V13H47.15V19.18H48V21.3H47.1V20H42.1V21.3H41.2V19.18ZM46.21 19.18V13.82H43.52V14.6C43.52 15.6133 43.4733 16.49 43.38 17.23C43.2933 17.97 43.15 18.62 42.95 19.18H46.21ZM51.207 20.1C50.867 20.1 50.5437 20.0467 50.237 19.94C49.9304 19.8267 49.6604 19.66 49.427 19.44C49.1937 19.2133 49.007 18.93 48.867 18.59C48.727 18.25 48.657 17.8533 48.657 17.4V17.2C48.657 16.7733 48.727 16.3967 48.867 16.07C49.007 15.7433 49.1937 15.4733 49.427 15.26C49.6604 15.04 49.9304 14.8767 50.237 14.77C50.5437 14.6567 50.867 14.6 51.207 14.6C51.547 14.6 51.8704 14.6567 52.177 14.77C52.4837 14.8767 52.7537 15.04 52.987 15.26C53.2204 15.4733 53.407 15.7433 53.547 16.07C53.687 16.3967 53.757 16.7733 53.757 17.2V17.4C53.757 17.8533 53.687 18.25 53.547 18.59C53.407 18.93 53.2204 19.2133 52.987 19.44C52.7537 19.66 52.4837 19.8267 52.177 19.94C51.8704 20.0467 51.547 20.1 51.207 20.1ZM51.207 19.3C51.407 19.3 51.607 19.2667 51.807 19.2C52.007 19.1267 52.1837 19.0167 52.337 18.87C52.4904 18.7167 52.6137 18.52 52.707 18.28C52.807 18.04 52.857 17.7467 52.857 17.4V17.2C52.857 16.88 52.807 16.6067 52.707 16.38C52.6137 16.1533 52.4904 15.9667 52.337 15.82C52.1837 15.6733 52.007 15.5667 51.807 15.5C51.607 15.4333 51.407 15.4 51.207 15.4C51.007 15.4 50.807 15.4333 50.607 15.5C50.407 15.5667 50.2304 15.6733 50.077 15.82C49.9237 15.9667 49.797 16.1533 49.697 16.38C49.6037 16.6067 49.557 16.88 49.557 17.2V17.4C49.557 17.7467 49.6037 18.04 49.697 18.28C49.797 18.52 49.9237 18.7167 50.077 18.87C50.2304 19.0167 50.407 19.1267 50.607 19.2C50.807 19.2667 51.007 19.3 51.207 19.3ZM57.0531 20.1C56.7131 20.1 56.3965 20.0467 56.1031 19.94C55.8098 19.8267 55.5565 19.66 55.3431 19.44C55.1298 19.2133 54.9598 18.93 54.8331 18.59C54.7131 18.25 54.6531 17.8533 54.6531 17.4V17.2C54.6531 16.7733 54.7198 16.3967 54.8531 16.07C54.9865 15.7433 55.1631 15.4733 55.3831 15.26C55.6031 15.04 55.8565 14.8767 56.1431 14.77C56.4365 14.6567 56.7398 14.6 57.0531 14.6C57.3665 14.6 57.6465 14.6433 57.8931 14.73C58.1465 14.8167 58.3631 14.9367 58.5431 15.09C58.7298 15.2433 58.8798 15.4233 58.9931 15.63C59.1131 15.8367 59.1998 16.06 59.2531 16.3H58.3531C58.2998 16.1733 58.2365 16.0567 58.1631 15.95C58.0965 15.8367 58.0098 15.74 57.9031 15.66C57.8031 15.58 57.6831 15.5167 57.5431 15.47C57.4031 15.4233 57.2398 15.4 57.0531 15.4C56.8598 15.4 56.6731 15.4367 56.4931 15.51C56.3131 15.5767 56.1531 15.6833 56.0131 15.83C55.8731 15.97 55.7598 16.1533 55.6731 16.38C55.5931 16.6067 55.5531 16.88 55.5531 17.2V17.4C55.5531 17.74 55.5931 18.0333 55.6731 18.28C55.7598 18.52 55.8731 18.7167 56.0131 18.87C56.1531 19.0167 56.3131 19.1267 56.4931 19.2C56.6731 19.2667 56.8598 19.3 57.0531 19.3C57.3798 19.3 57.6531 19.22 57.8731 19.06C58.0998 18.9 58.2598 18.68 58.3531 18.4H59.2531C59.1265 18.9267 58.8665 19.3433 58.4731 19.65C58.0798 19.95 57.6065 20.1 57.0531 20.1ZM61.6623 15.48H59.8523V14.7H64.3523V15.48H62.5423V20H61.6623V15.48ZM66.25 22.1C66.15 22.1 66.05 22.09 65.95 22.07V21.27C66.05 21.29 66.15 21.3 66.25 21.3C66.35 21.3 66.4367 21.2833 66.51 21.25C66.5833 21.2167 66.6533 21.1533 66.72 21.06C66.7867 20.9667 66.8567 20.8333 66.93 20.66C67.01 20.4933 67.1 20.2733 67.2 20L64.95 14.7H65.93L67.65 19L69.21 14.7H70.15L68.15 20C68.01 20.3733 67.8767 20.6933 67.75 20.96C67.6233 21.2267 67.4867 21.4433 67.34 21.61C67.2 21.7833 67.0433 21.9067 66.87 21.98C66.6967 22.06 66.49 22.1 66.25 22.1ZM71.1457 14.7H75.5457V20H74.6657V15.48H72.0257V20H71.1457V14.7ZM77.1418 14.7H78.0218V16.91H80.7618V14.7H81.6418V20H80.7618V17.69H78.0218V20H77.1418V14.7ZM85.4453 20.1C85.1053 20.1 84.782 20.0467 84.4753 19.94C84.1686 19.8267 83.8986 19.66 83.6653 19.44C83.432 19.2133 83.2453 18.93 83.1053 18.59C82.9653 18.25 82.8953 17.8533 82.8953 17.4V17.2C82.8953 16.7733 82.9653 16.3967 83.1053 16.07C83.2453 15.7433 83.432 15.4733 83.6653 15.26C83.8986 15.04 84.1686 14.8767 84.4753 14.77C84.782 14.6567 85.1053 14.6 85.4453 14.6C85.7853 14.6 86.1086 14.6567 86.4153 14.77C86.722 14.8767 86.992 15.04 87.2253 15.26C87.4586 15.4733 87.6453 15.7433 87.7853 16.07C87.9253 16.3967 87.9953 16.7733 87.9953 17.2V17.4C87.9953 17.8533 87.9253 18.25 87.7853 18.59C87.6453 18.93 87.4586 19.2133 87.2253 19.44C86.992 19.66 86.722 19.8267 86.4153 19.94C86.1086 20.0467 85.7853 20.1 85.4453 20.1ZM85.4453 19.3C85.6453 19.3 85.8453 19.2667 86.0453 19.2C86.2453 19.1267 86.422 19.0167 86.5753 18.87C86.7286 18.7167 86.852 18.52 86.9453 18.28C87.0453 18.04 87.0953 17.7467 87.0953 17.4V17.2C87.0953 16.88 87.0453 16.6067 86.9453 16.38C86.852 16.1533 86.7286 15.9667 86.5753 15.82C86.422 15.6733 86.2453 15.5667 86.0453 15.5C85.8453 15.4333 85.6453 15.4 85.4453 15.4C85.2453 15.4 85.0453 15.4333 84.8453 15.5C84.6453 15.5667 84.4686 15.6733 84.3153 15.82C84.162 15.9667 84.0353 16.1533 83.9353 16.38C83.842 16.6067 83.7953 16.88 83.7953 17.2V17.4C83.7953 17.7467 83.842 18.04 83.9353 18.28C84.0353 18.52 84.162 18.7167 84.3153 18.87C84.4686 19.0167 84.6453 19.1267 84.8453 19.2C85.0453 19.2667 85.2453 19.3 85.4453 19.3ZM91.7414 14.7H94.0414C94.6947 14.7 95.1747 14.8367 95.4814 15.11C95.7881 15.3767 95.9414 15.7233 95.9414 16.15C95.9414 16.2633 95.9214 16.38 95.8814 16.5C95.8414 16.6133 95.7847 16.72 95.7114 16.82C95.6447 16.92 95.5614 17.0067 95.4614 17.08C95.3681 17.1533 95.2614 17.21 95.1414 17.25C95.4681 17.33 95.7147 17.4833 95.8814 17.71C96.0547 17.93 96.1414 18.19 96.1414 18.49C96.1414 18.95 95.9881 19.3167 95.6814 19.59C95.3747 19.8633 94.8947 20 94.2414 20H91.7414V14.7ZM94.2414 19.22C94.6147 19.22 94.8781 19.1533 95.0314 19.02C95.1847 18.8867 95.2614 18.6967 95.2614 18.45C95.2614 18.1967 95.1847 18.0033 95.0314 17.87C94.8781 17.73 94.6147 17.66 94.2414 17.66H92.6214V19.22H94.2414ZM94.0414 16.94C94.4214 16.94 94.6847 16.8733 94.8314 16.74C94.9847 16.6067 95.0614 16.4233 95.0614 16.19C95.0614 15.97 94.9847 15.7967 94.8314 15.67C94.6847 15.5433 94.4214 15.48 94.0414 15.48H92.6214V16.94H94.0414Z" fill="white"/>
<path d="M47.692 34.788H43.716L42.89 37H41.21L44.92 27.2H46.6L50.31 37H48.518L47.692 34.788ZM44.262 33.332H47.146L45.718 29.3L44.262 33.332ZM51.4956 29.58H52.9236V30.826C53.1476 30.3967 53.479 30.056 53.9176 29.804C54.3656 29.552 54.8696 29.426 55.4296 29.426C56.4003 29.426 57.1656 29.7293 57.7256 30.336C58.2856 30.9427 58.5656 31.8573 58.5656 33.08V33.36C58.5656 33.9947 58.491 34.55 58.3416 35.026C58.1923 35.502 57.9776 35.8987 57.6976 36.216C57.427 36.524 57.1003 36.7573 56.7176 36.916C56.335 37.0747 55.9056 37.154 55.4296 37.154C54.8976 37.154 54.4123 37.0373 53.9736 36.804C53.535 36.5707 53.2223 36.244 53.0356 35.824V39.8H51.4956V29.58ZM55.0656 35.81C55.6443 35.81 56.111 35.6093 56.4656 35.208C56.8203 34.8067 56.9976 34.1907 56.9976 33.36V33.08C56.9976 32.296 56.825 31.7173 56.4796 31.344C56.1343 30.9613 55.663 30.77 55.0656 30.77C54.8043 30.77 54.5523 30.812 54.3096 30.896C54.067 30.98 53.8476 31.106 53.6516 31.274C53.465 31.4327 53.3156 31.638 53.2036 31.89C53.0916 32.1327 53.0356 32.4127 53.0356 32.73V33.71C53.0356 34.0647 53.0916 34.3727 53.2036 34.634C53.3156 34.8953 53.465 35.1147 53.6516 35.292C53.8383 35.4693 54.053 35.6 54.2956 35.684C54.5383 35.768 54.795 35.81 55.0656 35.81ZM60.1089 29.58H61.5369V30.826C61.7609 30.3967 62.0922 30.056 62.5309 29.804C62.9789 29.552 63.4829 29.426 64.0429 29.426C65.0136 29.426 65.7789 29.7293 66.3389 30.336C66.8989 30.9427 67.1789 31.8573 67.1789 33.08V33.36C67.1789 33.9947 67.1042 34.55 66.9549 35.026C66.8056 35.502 66.5909 35.8987 66.3109 36.216C66.0402 36.524 65.7136 36.7573 65.3309 36.916C64.9482 37.0747 64.5189 37.154 64.0429 37.154C63.5109 37.154 63.0256 37.0373 62.5869 36.804C62.1482 36.5707 61.8356 36.244 61.6489 35.824V39.8H60.1089V29.58ZM63.6789 35.81C64.2576 35.81 64.7242 35.6093 65.0789 35.208C65.4336 34.8067 65.6109 34.1907 65.6109 33.36V33.08C65.6109 32.296 65.4382 31.7173 65.0929 31.344C64.7476 30.9613 64.2762 30.77 63.6789 30.77C63.4176 30.77 63.1656 30.812 62.9229 30.896C62.6802 30.98 62.4609 31.106 62.2649 31.274C62.0782 31.4327 61.9289 31.638 61.8169 31.89C61.7049 32.1327 61.6489 32.4127 61.6489 32.73V33.71C61.6489 34.0647 61.7049 34.3727 61.8169 34.634C61.9289 34.8953 62.0782 35.1147 62.2649 35.292C62.4516 35.4693 62.6662 35.6 62.9089 35.684C63.1516 35.768 63.4082 35.81 63.6789 35.81ZM75.7922 37.154C75.1575 37.154 74.6069 37.084 74.1402 36.944C73.6735 36.804 73.2815 36.608 72.9642 36.356C72.6562 36.104 72.4182 35.81 72.2502 35.474C72.0822 35.1287 71.9795 34.7507 71.9422 34.34H73.6222C73.6595 34.536 73.7202 34.7133 73.8042 34.872C73.8975 35.0307 74.0282 35.1707 74.1962 35.292C74.3642 35.4133 74.5742 35.5067 74.8262 35.572C75.0875 35.6373 75.4095 35.67 75.7922 35.67C76.1842 35.67 76.5155 35.6373 76.7862 35.572C77.0662 35.4973 77.2902 35.404 77.4582 35.292C77.6355 35.1707 77.7615 35.0307 77.8362 34.872C77.9202 34.704 77.9622 34.5267 77.9622 34.34C77.9622 33.8827 77.7475 33.5373 77.3182 33.304C76.8982 33.0707 76.2402 32.8607 75.3442 32.674C74.8402 32.562 74.3922 32.4313 74.0002 32.282C73.6082 32.1233 73.2815 31.932 73.0202 31.708C72.7589 31.4747 72.5582 31.1993 72.4182 30.882C72.2875 30.5553 72.2222 30.168 72.2222 29.72C72.2222 29.356 72.2969 29.0107 72.4462 28.684C72.6049 28.3573 72.8335 28.0727 73.1322 27.83C73.4309 27.5873 73.7995 27.396 74.2382 27.256C74.6862 27.116 75.2042 27.046 75.7922 27.046C76.3615 27.046 76.8609 27.1113 77.2902 27.242C77.7195 27.3727 78.0789 27.5593 78.3682 27.802C78.6669 28.0353 78.8955 28.3153 79.0542 28.642C79.2222 28.9687 79.3249 29.328 79.3622 29.72H77.6822C77.6075 29.3653 77.4162 29.0807 77.1082 28.866C76.8095 28.642 76.3709 28.53 75.7922 28.53C75.1202 28.53 74.6349 28.6467 74.3362 28.88C74.0469 29.1133 73.9022 29.3933 73.9022 29.72C73.9022 30.168 74.0889 30.504 74.4622 30.728C74.8355 30.952 75.4095 31.1433 76.1842 31.302C76.7535 31.4233 77.2529 31.5633 77.6822 31.722C78.1209 31.8807 78.4849 32.0813 78.7742 32.324C79.0635 32.5573 79.2782 32.8373 79.4182 33.164C79.5675 33.4907 79.6422 33.8827 79.6422 34.34C79.6422 34.7413 79.5629 35.1147 79.4042 35.46C79.2455 35.8053 79.0029 36.104 78.6762 36.356C78.3589 36.608 77.9575 36.804 77.4722 36.944C76.9962 37.084 76.4362 37.154 75.7922 37.154ZM84.0609 37.07C83.2116 37.07 82.6003 36.888 82.2269 36.524C81.8629 36.16 81.6809 35.572 81.6809 34.76V30.896H80.6309V29.58H81.6809V27.9H83.2209V29.58H85.1109V30.896H83.2209V34.55C83.2209 34.9887 83.3003 35.2967 83.4589 35.474C83.6269 35.642 83.9443 35.726 84.4109 35.726C84.6909 35.726 84.9709 35.712 85.2509 35.684V37C85.0736 37.0187 84.8916 37.0327 84.7049 37.042C84.5183 37.0607 84.3036 37.07 84.0609 37.07ZM89.948 37.154C89.4347 37.154 88.954 37.0747 88.506 36.916C88.0674 36.748 87.6847 36.5053 87.358 36.188C87.0314 35.8707 86.7747 35.4787 86.588 35.012C86.4014 34.536 86.308 33.9853 86.308 33.36V33.08C86.308 32.492 86.4014 31.974 86.588 31.526C86.7747 31.0687 87.0314 30.686 87.358 30.378C87.6847 30.0607 88.0674 29.8227 88.506 29.664C88.954 29.5053 89.4347 29.426 89.948 29.426C90.4614 29.426 90.9374 29.5053 91.376 29.664C91.824 29.8227 92.2114 30.0607 92.538 30.378C92.8647 30.686 93.1214 31.0687 93.308 31.526C93.4947 31.974 93.588 32.492 93.588 33.08V33.36C93.588 33.9853 93.4947 34.536 93.308 35.012C93.1214 35.4787 92.8647 35.8707 92.538 36.188C92.2114 36.5053 91.824 36.748 91.376 36.916C90.9374 37.0747 90.4614 37.154 89.948 37.154ZM89.948 35.81C90.2187 35.81 90.4754 35.7633 90.718 35.67C90.97 35.5767 91.1894 35.432 91.376 35.236C91.572 35.04 91.726 34.788 91.838 34.48C91.9594 34.172 92.02 33.7987 92.02 33.36V33.08C92.02 32.6787 91.9594 32.3333 91.838 32.044C91.726 31.7547 91.572 31.5167 91.376 31.33C91.1894 31.1433 90.97 31.0033 90.718 30.91C90.4754 30.8167 90.2187 30.77 89.948 30.77C89.6774 30.77 89.416 30.8167 89.164 30.91C88.9214 31.0033 88.702 31.1433 88.506 31.33C88.3194 31.5167 88.1654 31.7547 88.044 32.044C87.932 32.3333 87.876 32.6787 87.876 33.08V33.36C87.876 33.7987 87.932 34.172 88.044 34.48C88.1654 34.788 88.3194 35.04 88.506 35.236C88.702 35.432 88.9214 35.5767 89.164 35.67C89.416 35.7633 89.6774 35.81 89.948 35.81ZM95.1226 29.58H96.5506V30.84C96.6999 30.4573 96.9426 30.126 97.2786 29.846C97.6239 29.566 98.0486 29.426 98.5526 29.426C98.7859 29.426 98.9586 29.4353 99.0706 29.454C99.1919 29.4727 99.2759 29.4913 99.3226 29.51V30.91C99.1639 30.8633 99.0192 30.8307 98.8886 30.812C98.7579 30.784 98.5992 30.77 98.4126 30.77C98.1046 30.77 97.8386 30.826 97.6146 30.938C97.3999 31.0407 97.2226 31.1807 97.0826 31.358C96.9426 31.526 96.8352 31.7267 96.7606 31.96C96.6952 32.184 96.6626 32.4173 96.6626 32.66V37H95.1226V29.58ZM103.661 37.154C103.166 37.154 102.7 37.0793 102.261 36.93C101.822 36.7713 101.435 36.538 101.099 36.23C100.772 35.9127 100.511 35.516 100.315 35.04C100.119 34.564 100.021 34.004 100.021 33.36V33.08C100.021 32.464 100.114 31.9273 100.301 31.47C100.488 31.0127 100.74 30.6347 101.057 30.336C101.384 30.028 101.757 29.7993 102.177 29.65C102.597 29.5007 103.045 29.426 103.521 29.426C104.65 29.426 105.514 29.7293 106.111 30.336C106.718 30.9427 107.021 31.8107 107.021 32.94V33.724H101.589C101.598 34.1067 101.659 34.4333 101.771 34.704C101.892 34.9653 102.046 35.18 102.233 35.348C102.429 35.5067 102.648 35.6233 102.891 35.698C103.143 35.7727 103.4 35.81 103.661 35.81C104.193 35.81 104.58 35.726 104.823 35.558C105.075 35.39 105.248 35.1707 105.341 34.9H106.881C106.732 35.6373 106.363 36.1973 105.775 36.58C105.196 36.9627 104.492 37.154 103.661 37.154ZM103.591 30.77C103.33 30.77 103.078 30.8027 102.835 30.868C102.602 30.9333 102.392 31.0407 102.205 31.19C102.028 31.33 101.883 31.5167 101.771 31.75C101.659 31.974 101.598 32.2493 101.589 32.576H105.481C105.472 32.2307 105.416 31.9413 105.313 31.708C105.22 31.4747 105.089 31.288 104.921 31.148C104.753 31.008 104.552 30.91 104.319 30.854C104.095 30.798 103.852 30.77 103.591 30.77Z" fill="white"/>
</svg>