<svg width="24" height="24" viewBox="0 0 24 24" fill="none" xmlns="http://www.w3.org/2000/svg">
<path d="M20.1067 20.2321L20.2589 20.5949L20.6523 20.6L22.4 20.6224V21.4H16.6V20.6227L18.4673 20.6L19.358 20.5891L19.0132 19.7678L12.5547 4.38124C12.316 3.79318 11.9163 3.32582 11.4033 2.96792C10.8759 2.59996 10.2667 2.4 9.61 2.4C8.72212 2.4 7.94968 2.73972 7.33164 3.36987C6.71268 4.00097 6.4 4.76139 6.4 5.64V9V9.6H7H9C9.63855 9.6 10.1989 9.76894 10.6836 10.0698L10.6924 10.0753L10.7014 10.0804C11.2262 10.3815 11.635 10.7769 11.9275 11.295C12.2342 11.8383 12.4 12.3976 12.4 13V21.4H9.06373C9.18658 21.1522 9.28988 20.8947 9.37251 20.63H11H11.6V20.03V13C11.6 12.3218 11.3641 11.6938 10.8515 11.193C10.3503 10.6931 9.72894 10.43 9 10.43H4H3.4V11.03V13.4623C3.13918 13.4906 2.8823 13.5377 2.63 13.6035V9.6H5.03H5.63538L5.62998 8.99464L5.6 5.6374C5.60045 4.90721 5.79089 4.23248 6.14773 3.62324C6.50745 3.00908 6.99597 2.51213 7.6087 2.1445C8.21265 1.78212 8.87544 1.6 9.61 1.6C10.4318 1.6 11.165 1.82505 11.825 2.26776C12.5006 2.72421 12.9951 3.31447 13.3188 4.04713L20.1067 20.2321ZM5.6 19C5.6 18.1186 4.88137 17.4 4 17.4C3.11863 17.4 2.4 18.1186 2.4 19C2.4 19.8814 3.11863 20.6 4 20.6C4.88137 20.6 5.6 19.8814 5.6 19ZM1.6 19C1.6 17.6714 2.67137 16.6 4 16.6C5.32863 16.6 6.4 17.6714 6.4 19C6.4 20.3286 5.32863 21.4 4 21.4C2.67137 21.4 1.6 20.3286 1.6 19Z" stroke-width="1.2"/>
</svg>
