<?xml version="1.0" encoding="UTF-8" standalone="no"?>
<!-- Created with Inkscape (http://www.inkscape.org/) -->

<svg
   version="1.1"
   id="svg2"
   width="1440"
   height="1440"
   viewBox="0 0 1440 1440"
   sodipodi:docname="Click.ai"
   xmlns:inkscape="http://www.inkscape.org/namespaces/inkscape"
   xmlns:sodipodi="http://sodipodi.sourceforge.net/DTD/sodipodi-0.dtd"
   xmlns="http://www.w3.org/2000/svg"
   xmlns:svg="http://www.w3.org/2000/svg">
  <defs
     id="defs6">
    <clipPath
       clipPathUnits="userSpaceOnUse"
       id="clipPath16">
      <path
         d="M 0,1080 H 1080 V 0 H 0 Z"
         id="path14" />
    </clipPath>
    <linearGradient
       x1="0"
       y1="0"
       x2="1"
       y2="0"
       gradientUnits="userSpaceOnUse"
       gradientTransform="matrix(205.90538,215.93713,-215.93713,205.90538,193.87044,426.83914)"
       spreadMethod="pad"
       id="linearGradient54">
      <stop
         style="stop-opacity:1;stop-color:#0078ff"
         offset="0"
         id="stop50" />
      <stop
         style="stop-opacity:1;stop-color:#00deff"
         offset="1"
         id="stop52" />
    </linearGradient>
  </defs>
  <sodipodi:namedview
     id="namedview4"
     pagecolor="#ffffff"
     bordercolor="#000000"
     borderopacity="0.25"
     inkscape:showpageshadow="2"
     inkscape:pageopacity="0.0"
     inkscape:pagecheckerboard="0"
     inkscape:deskcolor="#d1d1d1" />
  <g
     id="g8"
     inkscape:groupmode="layer"
     inkscape:label="Click"
     transform="matrix(1.3333333,0,0,-1.3333333,0,1440)">
    <g
       id="g10">
      <g
         id="g12"
         clip-path="url(#clipPath16)">
        <g
           id="g18"
           transform="translate(562.3301,467.2227)">
          <path
             d="m 0,0 c -7.168,0 -13.784,1.103 -19.849,3.308 -6.064,2.206 -11.026,5.513 -15.437,9.373 -4.411,4.411 -7.719,9.373 -10.476,15.989 -2.205,6.616 -3.859,13.783 -3.859,22.605 v 3.86 c 0,8.269 1.102,14.886 3.859,21.502 2.757,6.065 6.065,11.027 10.476,15.437 4.411,4.411 9.924,7.168 15.437,9.373 6.065,2.206 12.13,3.308 18.746,3.308 7.167,0 13.233,-1.102 18.746,-2.756 5.513,-1.654 9.924,-4.411 13.784,-7.719 3.859,-3.308 6.616,-7.168 8.821,-11.578 2.205,-4.411 3.308,-9.373 4.411,-14.336 H 19.297 c -1.654,4.411 -3.859,8.271 -6.616,11.028 -2.757,2.756 -7.167,3.859 -13.233,3.859 -3.307,0 -6.064,-0.551 -9.372,-1.654 -2.757,-1.103 -5.514,-2.757 -7.72,-4.962 -2.205,-2.206 -3.858,-5.514 -4.961,-8.822 -1.103,-3.308 -1.654,-7.718 -1.654,-12.68 v -3.86 c 0,-5.513 0.551,-9.924 1.654,-13.784 1.103,-3.859 2.756,-7.167 4.961,-9.373 2.206,-2.205 4.412,-4.41 7.72,-5.513 2.756,-1.103 6.065,-1.654 9.372,-1.654 4.962,0 9.373,1.103 12.682,3.86 3.308,2.756 6.064,6.064 7.167,11.026 H 44.659 C 44.107,30.324 42.453,25.361 40.248,20.951 38.043,16.54 34.734,12.681 30.875,9.373 27.016,6.064 22.605,3.859 17.092,2.205 12.681,0.552 6.616,0 0,0"
             style="fill:#fff;fill-opacity:1;fill-rule:nonzero;stroke:none"
             id="path20" />
        </g>
        <g
           id="g22"
           transform="translate(658.8154,468.3271)">
          <path
             d="m 0,0 c -6.065,0 -11.027,0.552 -14.887,1.654 -4.41,1.103 -7.718,2.757 -10.475,5.514 -2.757,2.757 -4.962,6.064 -6.065,11.026 -1.102,4.411 -1.654,9.925 -1.654,17.092 v 98.14 h 24.81 V 38.043 c 0,-3.308 0,-6.064 0.552,-7.719 0.551,-2.205 1.103,-3.859 2.205,-4.962 1.103,-1.102 2.205,-2.205 4.411,-2.757 1.654,-0.551 3.86,-1.102 6.616,-1.102 h 3.86 c 1.103,0 2.205,0 2.756,0.551 V 1.103 c -0.551,0 -1.653,0 -2.756,-0.551 -1.103,0 -2.206,0 -2.757,-0.552 L 3.308,0 Z"
             style="fill:#fff;fill-opacity:1;fill-rule:nonzero;stroke:none"
             id="path24" />
        </g>
        <g
           id="g26"
           transform="translate(701.8193,580.248)">
          <path
             d="m 0,0 c -4.411,0 -8.271,1.103 -11.026,3.859 -2.757,2.757 -3.86,6.065 -3.86,9.925 0,3.859 1.103,7.167 3.86,9.924 2.755,2.756 6.615,3.859 11.026,3.859 4.411,0 8.271,-1.103 11.027,-3.859 2.756,-2.757 3.86,-6.065 3.86,-9.924 0,-3.86 -1.104,-7.168 -3.86,-9.925 C 8.271,1.103 4.411,0 0,0 M -12.681,-10.476 H 12.13 v -100.345 h -24.811 z"
             style="fill:#fff;fill-opacity:1;fill-rule:nonzero;stroke:none"
             id="path28" />
        </g>
        <g
           id="g30"
           transform="translate(782.8672,467.2227)">
          <path
             d="m 0,0 c -7.168,0 -13.784,1.103 -19.849,3.308 -6.064,2.206 -11.026,5.513 -15.437,9.373 -4.411,4.411 -7.719,9.373 -10.476,15.989 -2.205,6.616 -3.859,13.783 -3.859,22.605 v 3.86 c 0,8.269 1.102,14.886 3.859,21.502 2.757,6.065 6.065,11.027 10.476,15.437 4.411,4.411 9.924,7.168 15.437,9.373 6.065,2.206 12.13,3.308 18.746,3.308 7.167,0 13.232,-1.102 18.746,-2.756 5.513,-1.654 9.924,-4.411 13.784,-7.719 3.859,-3.308 6.616,-7.168 8.821,-11.578 2.205,-4.411 3.308,-9.373 4.41,-14.336 H 19.297 c -1.654,4.411 -3.859,8.271 -6.616,11.028 -2.757,2.756 -7.167,3.859 -13.233,3.859 -3.307,0 -6.064,-0.551 -9.373,-1.654 -2.756,-1.103 -5.513,-2.757 -7.719,-4.962 -2.205,-2.206 -3.859,-5.514 -4.961,-8.822 -1.103,-3.308 -1.655,-7.718 -1.655,-12.68 v -3.86 c 0,-5.513 0.552,-9.924 1.655,-13.784 1.102,-3.859 2.756,-7.167 4.961,-9.373 2.206,-2.205 4.412,-4.41 7.719,-5.513 2.757,-1.103 6.066,-1.654 9.373,-1.654 4.962,0 9.373,1.103 12.681,3.86 3.309,2.756 6.065,6.064 7.168,11.026 H 44.658 C 44.107,30.324 42.453,25.361 40.248,20.951 38.043,16.54 34.734,12.681 30.875,9.373 27.016,6.064 22.604,3.859 17.092,2.205 12.681,0.552 6.616,0 0,0"
             style="fill:#fff;fill-opacity:1;fill-rule:nonzero;stroke:none"
             id="path32" />
        </g>
        <g
           id="g34"
           transform="translate(845.1689,469.4297)">
          <path
             d="M 0,0 V 132.323 H 25.361 V 58.994 L 61.75,100.345 H 90.972 L 53.48,57.892 94.831,0 H 65.059 L 36.389,40.8 25.361,28.67 V 0 Z"
             style="fill:#fff;fill-opacity:1;fill-rule:nonzero;stroke:none"
             id="path36" />
        </g>
      </g>
    </g>
    <g
       id="g38">
      <g
         id="g40">
        <g
           id="g46">
          <g
             id="g48">
            <path
               d="M 195.134,646.409 C 158.194,610.021 140,575.286 140,540.552 v 0 V 540 c 0,-34.735 18.194,-70.021 55.134,-106.409 v 0 c 36.389,-36.389 71.675,-54.583 106.41,-55.135 v 0 h 0.551 c 34.734,0 70.021,18.195 106.41,55.135 v 0 c 72.776,72.777 73.328,139.489 0,213.37 v 0 c -36.941,36.388 -72.226,54.583 -106.961,54.583 v 0 c -35.286,0 -70.021,-18.195 -106.41,-55.135 m 47.967,-164.3 c -40.248,40.248 -39.697,76.636 0,116.333 v 0 c 39.697,39.697 76.086,40.248 116.334,0 v 0 c 40.248,-40.248 39.697,-76.636 0,-116.333 v 0 c -19.849,-19.848 -39.146,-29.773 -57.891,-29.773 v 0 c -0.506,-0.015 -1.015,-0.022 -1.521,-0.022 v 0 c -18.764,-0.001 -37.057,9.93 -56.922,29.795"
               style="fill:url(#linearGradient54);stroke:none"
               id="path56" />
          </g>
        </g>
      </g>
    </g>
  </g>
</svg>
