<svg width="140" height="50" viewBox="0 0 140 50" fill="none" xmlns="http://www.w3.org/2000/svg">
<rect width="140" height="50" rx="8" fill="#1D242F"/>
<g filter="url(#filter0_ii_890_11947)">
<path d="M15.342 15.2932C15.1271 15.5207 15 15.8738 15 16.3311V32.6682C15 33.1262 15.1271 33.4786 15.342 33.7061L15.3967 33.7593L24.5485 24.6075V24.4996V24.3918L15.3967 15.2393L15.342 15.2932Z" fill="url(#paint0_linear_890_11947)"/>
<path d="M27.5984 27.6589L24.5483 24.6074V24.4995V24.3917L27.5992 21.3408L27.6679 21.38L31.2824 23.4336C32.3143 24.0201 32.3143 24.9797 31.2824 25.5669L27.6679 27.6205L27.5984 27.6589Z" fill="url(#paint1_linear_890_11947)"/>
<g filter="url(#filter1_i_890_11947)">
<path d="M27.6683 27.6203L24.548 24.5L15.3423 33.7065C15.6821 34.0669 16.2442 34.1113 16.8773 33.7523L27.6683 27.6203Z" fill="url(#paint2_linear_890_11947)"/>
</g>
<path d="M27.6683 21.3795L16.8773 15.2483C16.2442 14.8885 15.6821 14.9336 15.3423 15.2941L24.5487 24.5005L27.6683 21.3795Z" fill="url(#paint3_linear_890_11947)"/>
</g>
<path d="M41.2 19.18H41.95C42.0767 18.9267 42.1833 18.6133 42.27 18.24C42.3567 17.8667 42.4233 17.4667 42.47 17.04C42.5167 16.6067 42.55 16.1633 42.57 15.71C42.59 15.25 42.6 14.8133 42.6 14.4V13H47.15V19.18H48V21.3H47.1V20H42.1V21.3H41.2V19.18ZM46.21 19.18V13.82H43.52V14.6C43.52 15.6133 43.4733 16.49 43.38 17.23C43.2933 17.97 43.15 18.62 42.95 19.18H46.21ZM51.207 20.1C50.867 20.1 50.5437 20.0467 50.237 19.94C49.9304 19.8267 49.6604 19.66 49.427 19.44C49.1937 19.2133 49.007 18.93 48.867 18.59C48.727 18.25 48.657 17.8533 48.657 17.4V17.2C48.657 16.7733 48.727 16.3967 48.867 16.07C49.007 15.7433 49.1937 15.4733 49.427 15.26C49.6604 15.04 49.9304 14.8767 50.237 14.77C50.5437 14.6567 50.867 14.6 51.207 14.6C51.547 14.6 51.8704 14.6567 52.177 14.77C52.4837 14.8767 52.7537 15.04 52.987 15.26C53.2204 15.4733 53.407 15.7433 53.547 16.07C53.687 16.3967 53.757 16.7733 53.757 17.2V17.4C53.757 17.8533 53.687 18.25 53.547 18.59C53.407 18.93 53.2204 19.2133 52.987 19.44C52.7537 19.66 52.4837 19.8267 52.177 19.94C51.8704 20.0467 51.547 20.1 51.207 20.1ZM51.207 19.3C51.407 19.3 51.607 19.2667 51.807 19.2C52.007 19.1267 52.1837 19.0167 52.337 18.87C52.4904 18.7167 52.6137 18.52 52.707 18.28C52.807 18.04 52.857 17.7467 52.857 17.4V17.2C52.857 16.88 52.807 16.6067 52.707 16.38C52.6137 16.1533 52.4904 15.9667 52.337 15.82C52.1837 15.6733 52.007 15.5667 51.807 15.5C51.607 15.4333 51.407 15.4 51.207 15.4C51.007 15.4 50.807 15.4333 50.607 15.5C50.407 15.5667 50.2304 15.6733 50.077 15.82C49.9237 15.9667 49.797 16.1533 49.697 16.38C49.6037 16.6067 49.557 16.88 49.557 17.2V17.4C49.557 17.7467 49.6037 18.04 49.697 18.28C49.797 18.52 49.9237 18.7167 50.077 18.87C50.2304 19.0167 50.407 19.1267 50.607 19.2C50.807 19.2667 51.007 19.3 51.207 19.3ZM57.0531 20.1C56.7131 20.1 56.3965 20.0467 56.1031 19.94C55.8098 19.8267 55.5565 19.66 55.3431 19.44C55.1298 19.2133 54.9598 18.93 54.8331 18.59C54.7131 18.25 54.6531 17.8533 54.6531 17.4V17.2C54.6531 16.7733 54.7198 16.3967 54.8531 16.07C54.9865 15.7433 55.1631 15.4733 55.3831 15.26C55.6031 15.04 55.8565 14.8767 56.1431 14.77C56.4365 14.6567 56.7398 14.6 57.0531 14.6C57.3665 14.6 57.6465 14.6433 57.8931 14.73C58.1465 14.8167 58.3631 14.9367 58.5431 15.09C58.7298 15.2433 58.8798 15.4233 58.9931 15.63C59.1131 15.8367 59.1998 16.06 59.2531 16.3H58.3531C58.2998 16.1733 58.2365 16.0567 58.1631 15.95C58.0965 15.8367 58.0098 15.74 57.9031 15.66C57.8031 15.58 57.6831 15.5167 57.5431 15.47C57.4031 15.4233 57.2398 15.4 57.0531 15.4C56.8598 15.4 56.6731 15.4367 56.4931 15.51C56.3131 15.5767 56.1531 15.6833 56.0131 15.83C55.8731 15.97 55.7598 16.1533 55.6731 16.38C55.5931 16.6067 55.5531 16.88 55.5531 17.2V17.4C55.5531 17.74 55.5931 18.0333 55.6731 18.28C55.7598 18.52 55.8731 18.7167 56.0131 18.87C56.1531 19.0167 56.3131 19.1267 56.4931 19.2C56.6731 19.2667 56.8598 19.3 57.0531 19.3C57.3798 19.3 57.6531 19.22 57.8731 19.06C58.0998 18.9 58.2598 18.68 58.3531 18.4H59.2531C59.1265 18.9267 58.8665 19.3433 58.4731 19.65C58.0798 19.95 57.6065 20.1 57.0531 20.1ZM61.6623 15.48H59.8523V14.7H64.3523V15.48H62.5423V20H61.6623V15.48ZM66.25 22.1C66.15 22.1 66.05 22.09 65.95 22.07V21.27C66.05 21.29 66.15 21.3 66.25 21.3C66.35 21.3 66.4367 21.2833 66.51 21.25C66.5833 21.2167 66.6533 21.1533 66.72 21.06C66.7867 20.9667 66.8567 20.8333 66.93 20.66C67.01 20.4933 67.1 20.2733 67.2 20L64.95 14.7H65.93L67.65 19L69.21 14.7H70.15L68.15 20C68.01 20.3733 67.8767 20.6933 67.75 20.96C67.6233 21.2267 67.4867 21.4433 67.34 21.61C67.2 21.7833 67.0433 21.9067 66.87 21.98C66.6967 22.06 66.49 22.1 66.25 22.1ZM71.1457 14.7H75.5457V20H74.6657V15.48H72.0257V20H71.1457V14.7ZM77.1418 14.7H78.0218V16.91H80.7618V14.7H81.6418V20H80.7618V17.69H78.0218V20H77.1418V14.7ZM85.4453 20.1C85.1053 20.1 84.782 20.0467 84.4753 19.94C84.1686 19.8267 83.8986 19.66 83.6653 19.44C83.432 19.2133 83.2453 18.93 83.1053 18.59C82.9653 18.25 82.8953 17.8533 82.8953 17.4V17.2C82.8953 16.7733 82.9653 16.3967 83.1053 16.07C83.2453 15.7433 83.432 15.4733 83.6653 15.26C83.8986 15.04 84.1686 14.8767 84.4753 14.77C84.782 14.6567 85.1053 14.6 85.4453 14.6C85.7853 14.6 86.1086 14.6567 86.4153 14.77C86.722 14.8767 86.992 15.04 87.2253 15.26C87.4586 15.4733 87.6453 15.7433 87.7853 16.07C87.9253 16.3967 87.9953 16.7733 87.9953 17.2V17.4C87.9953 17.8533 87.9253 18.25 87.7853 18.59C87.6453 18.93 87.4586 19.2133 87.2253 19.44C86.992 19.66 86.722 19.8267 86.4153 19.94C86.1086 20.0467 85.7853 20.1 85.4453 20.1ZM85.4453 19.3C85.6453 19.3 85.8453 19.2667 86.0453 19.2C86.2453 19.1267 86.422 19.0167 86.5753 18.87C86.7286 18.7167 86.852 18.52 86.9453 18.28C87.0453 18.04 87.0953 17.7467 87.0953 17.4V17.2C87.0953 16.88 87.0453 16.6067 86.9453 16.38C86.852 16.1533 86.7286 15.9667 86.5753 15.82C86.422 15.6733 86.2453 15.5667 86.0453 15.5C85.8453 15.4333 85.6453 15.4 85.4453 15.4C85.2453 15.4 85.0453 15.4333 84.8453 15.5C84.6453 15.5667 84.4686 15.6733 84.3153 15.82C84.162 15.9667 84.0353 16.1533 83.9353 16.38C83.842 16.6067 83.7953 16.88 83.7953 17.2V17.4C83.7953 17.7467 83.842 18.04 83.9353 18.28C84.0353 18.52 84.162 18.7167 84.3153 18.87C84.4686 19.0167 84.6453 19.1267 84.8453 19.2C85.0453 19.2667 85.2453 19.3 85.4453 19.3ZM91.7414 14.7H94.0414C94.6947 14.7 95.1747 14.8367 95.4814 15.11C95.7881 15.3767 95.9414 15.7233 95.9414 16.15C95.9414 16.2633 95.9214 16.38 95.8814 16.5C95.8414 16.6133 95.7847 16.72 95.7114 16.82C95.6447 16.92 95.5614 17.0067 95.4614 17.08C95.3681 17.1533 95.2614 17.21 95.1414 17.25C95.4681 17.33 95.7147 17.4833 95.8814 17.71C96.0547 17.93 96.1414 18.19 96.1414 18.49C96.1414 18.95 95.9881 19.3167 95.6814 19.59C95.3747 19.8633 94.8947 20 94.2414 20H91.7414V14.7ZM94.2414 19.22C94.6147 19.22 94.8781 19.1533 95.0314 19.02C95.1847 18.8867 95.2614 18.6967 95.2614 18.45C95.2614 18.1967 95.1847 18.0033 95.0314 17.87C94.8781 17.73 94.6147 17.66 94.2414 17.66H92.6214V19.22H94.2414ZM94.0414 16.94C94.4214 16.94 94.6847 16.8733 94.8314 16.74C94.9847 16.6067 95.0614 16.4233 95.0614 16.19C95.0614 15.97 94.9847 15.7967 94.8314 15.67C94.6847 15.5433 94.4214 15.48 94.0414 15.48H92.6214V16.94H94.0414Z" fill="white"/>
<path d="M46.18 37.154C45.508 37.154 44.8967 37.0513 44.346 36.846C43.8047 36.6313 43.3427 36.314 42.96 35.894C42.5773 35.474 42.2833 34.956 42.078 34.34C41.8727 33.7147 41.77 32.9913 41.77 32.17V31.89C41.77 31.1247 41.8727 30.4433 42.078 29.846C42.2927 29.2393 42.5913 28.7307 42.974 28.32C43.366 27.9 43.8327 27.5827 44.374 27.368C44.9153 27.1533 45.5173 27.046 46.18 27.046C47.1973 27.046 48.0513 27.312 48.742 27.844C49.4327 28.3667 49.8853 29.132 50.1 30.14H48.28C48.1773 29.832 48.0513 29.5753 47.902 29.37C47.7527 29.1647 47.5847 29.0013 47.398 28.88C47.2113 28.7493 47.0107 28.6607 46.796 28.614C46.5907 28.558 46.3853 28.53 46.18 28.53C45.3867 28.53 44.7473 28.8053 44.262 29.356C43.7767 29.8973 43.534 30.742 43.534 31.89V32.17C43.534 32.7673 43.5993 33.2853 43.73 33.724C43.8607 34.1627 44.0427 34.5267 44.276 34.816C44.5093 35.1053 44.7893 35.32 45.116 35.46C45.4427 35.6 45.7973 35.67 46.18 35.67C46.908 35.67 47.4867 35.4787 47.916 35.096C48.3547 34.7133 48.6113 34.1113 48.686 33.29H46.46V31.89H50.31V32.45C50.31 33.234 50.212 33.92 50.016 34.508C49.8293 35.096 49.5587 35.586 49.204 35.978C48.8493 36.37 48.4153 36.664 47.902 36.86C47.398 37.056 46.824 37.154 46.18 37.154ZM55.2078 37.154C54.6945 37.154 54.2138 37.0747 53.7658 36.916C53.3271 36.748 52.9445 36.5053 52.6178 36.188C52.2911 35.8707 52.0345 35.4787 51.8478 35.012C51.6611 34.536 51.5678 33.9853 51.5678 33.36V33.08C51.5678 32.492 51.6611 31.974 51.8478 31.526C52.0345 31.0687 52.2911 30.686 52.6178 30.378C52.9445 30.0607 53.3271 29.8227 53.7658 29.664C54.2138 29.5053 54.6945 29.426 55.2078 29.426C55.7211 29.426 56.1971 29.5053 56.6358 29.664C57.0838 29.8227 57.4711 30.0607 57.7978 30.378C58.1245 30.686 58.3811 31.0687 58.5678 31.526C58.7545 31.974 58.8478 32.492 58.8478 33.08V33.36C58.8478 33.9853 58.7545 34.536 58.5678 35.012C58.3811 35.4787 58.1245 35.8707 57.7978 36.188C57.4711 36.5053 57.0838 36.748 56.6358 36.916C56.1971 37.0747 55.7211 37.154 55.2078 37.154ZM55.2078 35.81C55.4785 35.81 55.7351 35.7633 55.9778 35.67C56.2298 35.5767 56.4491 35.432 56.6358 35.236C56.8318 35.04 56.9858 34.788 57.0978 34.48C57.2191 34.172 57.2798 33.7987 57.2798 33.36V33.08C57.2798 32.6787 57.2191 32.3333 57.0978 32.044C56.9858 31.7547 56.8318 31.5167 56.6358 31.33C56.4491 31.1433 56.2298 31.0033 55.9778 30.91C55.7351 30.8167 55.4785 30.77 55.2078 30.77C54.9371 30.77 54.6758 30.8167 54.4238 30.91C54.1811 31.0033 53.9618 31.1433 53.7658 31.33C53.5791 31.5167 53.4251 31.7547 53.3038 32.044C53.1918 32.3333 53.1358 32.6787 53.1358 33.08V33.36C53.1358 33.7987 53.1918 34.172 53.3038 34.48C53.4251 34.788 53.5791 35.04 53.7658 35.236C53.9618 35.432 54.1811 35.5767 54.4238 35.67C54.6758 35.7633 54.9371 35.81 55.2078 35.81ZM63.6023 37.154C63.089 37.154 62.6083 37.0747 62.1603 36.916C61.7217 36.748 61.339 36.5053 61.0123 36.188C60.6857 35.8707 60.429 35.4787 60.2423 35.012C60.0557 34.536 59.9623 33.9853 59.9623 33.36V33.08C59.9623 32.492 60.0557 31.974 60.2423 31.526C60.429 31.0687 60.6857 30.686 61.0123 30.378C61.339 30.0607 61.7217 29.8227 62.1603 29.664C62.6083 29.5053 63.089 29.426 63.6023 29.426C64.1157 29.426 64.5917 29.5053 65.0303 29.664C65.4783 29.8227 65.8657 30.0607 66.1923 30.378C66.519 30.686 66.7757 31.0687 66.9623 31.526C67.149 31.974 67.2423 32.492 67.2423 33.08V33.36C67.2423 33.9853 67.149 34.536 66.9623 35.012C66.7757 35.4787 66.519 35.8707 66.1923 36.188C65.8657 36.5053 65.4783 36.748 65.0303 36.916C64.5917 37.0747 64.1157 37.154 63.6023 37.154ZM63.6023 35.81C63.873 35.81 64.1297 35.7633 64.3723 35.67C64.6243 35.5767 64.8437 35.432 65.0303 35.236C65.2263 35.04 65.3803 34.788 65.4923 34.48C65.6137 34.172 65.6743 33.7987 65.6743 33.36V33.08C65.6743 32.6787 65.6137 32.3333 65.4923 32.044C65.3803 31.7547 65.2263 31.5167 65.0303 31.33C64.8437 31.1433 64.6243 31.0033 64.3723 30.91C64.1297 30.8167 63.873 30.77 63.6023 30.77C63.3317 30.77 63.0703 30.8167 62.8183 30.91C62.5757 31.0033 62.3563 31.1433 62.1603 31.33C61.9737 31.5167 61.8197 31.7547 61.6983 32.044C61.5863 32.3333 61.5303 32.6787 61.5303 33.08V33.36C61.5303 33.7987 61.5863 34.172 61.6983 34.48C61.8197 34.788 61.9737 35.04 62.1603 35.236C62.3563 35.432 62.5757 35.5767 62.8183 35.67C63.0703 35.7633 63.3317 35.81 63.6023 35.81ZM71.8569 39.954C71.2782 39.954 70.7929 39.898 70.4009 39.786C70.0089 39.6833 69.6869 39.534 69.4349 39.338C69.1829 39.142 68.9962 38.9087 68.8749 38.638C68.7535 38.3767 68.6742 38.0873 68.6369 37.77H70.2049C70.2422 37.882 70.2935 37.9893 70.3589 38.092C70.4335 38.204 70.5315 38.302 70.6529 38.386C70.7835 38.47 70.9469 38.5353 71.1429 38.582C71.3389 38.638 71.5769 38.666 71.8569 38.666C72.5569 38.666 73.0702 38.498 73.3969 38.162C73.7235 37.826 73.8869 37.3453 73.8869 36.72V35.67C73.6535 36.062 73.3362 36.384 72.9349 36.636C72.5335 36.888 72.0529 37.014 71.4929 37.014C71.0169 37.014 70.5875 36.9347 70.2049 36.776C69.8222 36.6173 69.4909 36.384 69.2109 36.076C68.9402 35.768 68.7302 35.3807 68.5809 34.914C68.4315 34.4473 68.3569 33.906 68.3569 33.29V33.01C68.3569 32.4313 68.4315 31.9227 68.5809 31.484C68.7302 31.036 68.9402 30.6627 69.2109 30.364C69.4909 30.056 69.8222 29.8227 70.2049 29.664C70.5875 29.5053 71.0122 29.426 71.4789 29.426C72.0949 29.426 72.6222 29.566 73.0609 29.846C73.5089 30.126 73.8215 30.4527 73.9989 30.826V29.58H75.4269V36.65C75.4269 37.6953 75.1282 38.5073 74.5309 39.086C73.9335 39.6647 73.0422 39.954 71.8569 39.954ZM71.8429 35.67C72.1135 35.67 72.3702 35.628 72.6129 35.544C72.8649 35.46 73.0842 35.334 73.2709 35.166C73.4575 34.9887 73.6069 34.774 73.7189 34.522C73.8309 34.2607 73.8869 33.962 73.8869 33.626V32.646C73.8869 32.3473 73.8309 32.0813 73.7189 31.848C73.6069 31.6147 73.4529 31.4187 73.2569 31.26C73.0702 31.1013 72.8509 30.98 72.5989 30.896C72.3562 30.812 72.1042 30.77 71.8429 30.77C71.2549 30.77 70.7882 30.9567 70.4429 31.33C70.0975 31.694 69.9249 32.254 69.9249 33.01V33.29C69.9249 34.0833 70.1022 34.6807 70.4569 35.082C70.8115 35.474 71.2735 35.67 71.8429 35.67ZM79.7702 37.07C79.3688 37.07 79.0235 37.028 78.7342 36.944C78.4448 36.86 78.2022 36.7247 78.0062 36.538C77.8195 36.342 77.6795 36.09 77.5862 35.782C77.5022 35.4647 77.4602 35.082 77.4602 34.634V27.2H79.0002V34.522C79.0002 34.9793 79.0748 35.2967 79.2242 35.474C79.3735 35.642 79.6488 35.726 80.0502 35.726C80.1528 35.726 80.2415 35.726 80.3162 35.726C80.3908 35.7167 80.4655 35.7073 80.5402 35.698V37.028C80.4655 37.0467 80.3442 37.056 80.1762 37.056C80.0082 37.0653 79.8728 37.07 79.7702 37.07ZM85.0262 37.154C84.5315 37.154 84.0648 37.0793 83.6262 36.93C83.1875 36.7713 82.8002 36.538 82.4642 36.23C82.1375 35.9127 81.8762 35.516 81.6802 35.04C81.4842 34.564 81.3862 34.004 81.3862 33.36V33.08C81.3862 32.464 81.4795 31.9273 81.6662 31.47C81.8528 31.0127 82.1048 30.6347 82.4222 30.336C82.7488 30.028 83.1222 29.7993 83.5422 29.65C83.9622 29.5007 84.4102 29.426 84.8862 29.426C86.0155 29.426 86.8788 29.7293 87.4762 30.336C88.0828 30.9427 88.3862 31.8107 88.3862 32.94V33.724H82.9542C82.9635 34.1067 83.0242 34.4333 83.1362 34.704C83.2575 34.9653 83.4115 35.18 83.5982 35.348C83.7942 35.5067 84.0135 35.6233 84.2562 35.698C84.5082 35.7727 84.7648 35.81 85.0262 35.81C85.5582 35.81 85.9455 35.726 86.1882 35.558C86.4402 35.39 86.6128 35.1707 86.7062 34.9H88.2462C88.0968 35.6373 87.7282 36.1973 87.1402 36.58C86.5615 36.9627 85.8568 37.154 85.0262 37.154ZM84.9562 30.77C84.6948 30.77 84.4428 30.8027 84.2002 30.868C83.9668 30.9333 83.7568 31.0407 83.5702 31.19C83.3928 31.33 83.2482 31.5167 83.1362 31.75C83.0242 31.974 82.9635 32.2493 82.9542 32.576H86.8462C86.8368 32.2307 86.7808 31.9413 86.6782 31.708C86.5848 31.4747 86.4542 31.288 86.2862 31.148C86.1182 31.008 85.9175 30.91 85.6842 30.854C85.4602 30.798 85.2175 30.77 84.9562 30.77ZM93.7073 27.2H97.2773C98.5933 27.2 99.5639 27.4847 100.189 28.054C100.815 28.614 101.127 29.37 101.127 30.322C101.127 31.274 100.815 32.0347 100.189 32.604C99.5639 33.164 98.5933 33.444 97.2773 33.444H95.3873V37H93.7073V27.2ZM97.1373 31.988C97.5759 31.988 97.9446 31.9553 98.2433 31.89C98.5419 31.8153 98.7799 31.7127 98.9573 31.582C99.1346 31.442 99.2606 31.2693 99.3353 31.064C99.4099 30.8493 99.4473 30.602 99.4473 30.322C99.4473 30.042 99.4099 29.7993 99.3353 29.594C99.2606 29.3887 99.1346 29.216 98.9573 29.076C98.7799 28.936 98.5419 28.8333 98.2433 28.768C97.9446 28.6933 97.5759 28.656 97.1373 28.656H95.3873V31.988H97.1373ZM105.049 37.07C104.648 37.07 104.303 37.028 104.013 36.944C103.724 36.86 103.481 36.7247 103.285 36.538C103.099 36.342 102.959 36.09 102.865 35.782C102.781 35.4647 102.739 35.082 102.739 34.634V27.2H104.279V34.522C104.279 34.9793 104.354 35.2967 104.503 35.474C104.653 35.642 104.928 35.726 105.329 35.726C105.432 35.726 105.521 35.726 105.595 35.726C105.67 35.7167 105.745 35.7073 105.819 35.698V37.028C105.745 37.0467 105.623 37.056 105.455 37.056C105.287 37.0653 105.152 37.07 105.049 37.07ZM109.392 37.154C108.991 37.154 108.632 37.098 108.314 36.986C108.006 36.8647 107.745 36.7013 107.53 36.496C107.316 36.2813 107.152 36.034 107.04 35.754C106.928 35.474 106.872 35.166 106.872 34.83C106.872 34.0927 107.092 33.5467 107.53 33.192C107.969 32.828 108.613 32.646 109.462 32.646H111.772V32.24C111.772 31.68 111.646 31.2973 111.394 31.092C111.152 30.8773 110.764 30.77 110.232 30.77C109.756 30.77 109.406 30.8447 109.182 30.994C108.958 31.1433 108.828 31.3487 108.79 31.61H107.292C107.311 31.2927 107.39 31.0033 107.53 30.742C107.68 30.4713 107.88 30.238 108.132 30.042C108.394 29.846 108.706 29.6967 109.07 29.594C109.434 29.482 109.845 29.426 110.302 29.426C110.76 29.426 111.17 29.4773 111.534 29.58C111.908 29.6827 112.225 29.846 112.486 30.07C112.748 30.2847 112.948 30.5647 113.088 30.91C113.238 31.2553 113.312 31.6707 113.312 32.156V35.11C113.312 35.502 113.317 35.8473 113.326 36.146C113.336 36.4353 113.359 36.72 113.396 37H111.996C111.968 36.7853 111.945 36.6033 111.926 36.454C111.917 36.3047 111.912 36.118 111.912 35.894C111.735 36.2393 111.427 36.538 110.988 36.79C110.559 37.0327 110.027 37.154 109.392 37.154ZM109.812 35.81C110.074 35.81 110.321 35.7773 110.554 35.712C110.797 35.6373 111.007 35.5347 111.184 35.404C111.362 35.264 111.502 35.096 111.604 34.9C111.716 34.6947 111.772 34.4613 111.772 34.2V33.794H109.742C109.35 33.794 109.033 33.878 108.79 34.046C108.557 34.214 108.44 34.4613 108.44 34.788C108.44 35.096 108.548 35.3433 108.762 35.53C108.986 35.7167 109.336 35.81 109.812 35.81ZM116.191 39.954C116.051 39.954 115.911 39.94 115.771 39.912V38.568C115.911 38.596 116.051 38.61 116.191 38.61C116.35 38.61 116.481 38.582 116.583 38.526C116.695 38.4793 116.793 38.3907 116.877 38.26C116.971 38.1387 117.059 37.9753 117.143 37.77C117.237 37.5647 117.339 37.308 117.451 37L114.301 29.58H115.981L118.249 35.32L120.293 29.58H121.861L118.991 37C118.786 37.5227 118.595 37.9707 118.417 38.344C118.24 38.7173 118.044 39.0207 117.829 39.254C117.624 39.4967 117.391 39.674 117.129 39.786C116.868 39.898 116.555 39.954 116.191 39.954Z" fill="white"/>
<defs>
<filter id="filter0_ii_890_11947" x="15" y="15" width="17.0562" height="19" filterUnits="userSpaceOnUse" color-interpolation-filters="sRGB">
<feFlood flood-opacity="0" result="BackgroundImageFix"/>
<feBlend mode="normal" in="SourceGraphic" in2="BackgroundImageFix" result="shape"/>
<feColorMatrix in="SourceAlpha" type="matrix" values="0 0 0 0 0 0 0 0 0 0 0 0 0 0 0 0 0 0 127 0" result="hardAlpha"/>
<feOffset dy="-0.110805"/>
<feComposite in2="hardAlpha" operator="arithmetic" k2="-1" k3="1"/>
<feColorMatrix type="matrix" values="0 0 0 0 0 0 0 0 0 0 0 0 0 0 0 0 0 0 0.12 0"/>
<feBlend mode="normal" in2="shape" result="effect1_innerShadow_890_11947"/>
<feColorMatrix in="SourceAlpha" type="matrix" values="0 0 0 0 0 0 0 0 0 0 0 0 0 0 0 0 0 0 127 0" result="hardAlpha"/>
<feOffset dy="0.110805"/>
<feComposite in2="hardAlpha" operator="arithmetic" k2="-1" k3="1"/>
<feColorMatrix type="matrix" values="0 0 0 0 1 0 0 0 0 1 0 0 0 0 1 0 0 0 0.25 0"/>
<feBlend mode="normal" in2="effect1_innerShadow_890_11947" result="effect2_innerShadow_890_11947"/>
</filter>
<filter id="filter1_i_890_11947" x="15.3423" y="24.5" width="12.3262" height="9.5" filterUnits="userSpaceOnUse" color-interpolation-filters="sRGB">
<feFlood flood-opacity="0" result="BackgroundImageFix"/>
<feBlend mode="normal" in="SourceGraphic" in2="BackgroundImageFix" result="shape"/>
<feColorMatrix in="SourceAlpha" type="matrix" values="0 0 0 0 0 0 0 0 0 0 0 0 0 0 0 0 0 0 127 0" result="hardAlpha"/>
<feOffset dy="-0.110805"/>
<feComposite in2="hardAlpha" operator="arithmetic" k2="-1" k3="1"/>
<feColorMatrix type="matrix" values="0 0 0 0 0 0 0 0 0 0 0 0 0 0 0 0 0 0 0.08 0"/>
<feBlend mode="normal" in2="shape" result="effect1_innerShadow_890_11947"/>
</filter>
<linearGradient id="paint0_linear_890_11947" x1="23.7372" y1="16.1582" x2="11.3403" y2="28.5551" gradientUnits="userSpaceOnUse">
<stop stop-color="#00A0FF"/>
<stop offset="0.0066" stop-color="#00A1FF"/>
<stop offset="0.2601" stop-color="#00BEFF"/>
<stop offset="0.5122" stop-color="#00D2FF"/>
<stop offset="0.7604" stop-color="#00DFFF"/>
<stop offset="1" stop-color="#00E3FF"/>
</linearGradient>
<linearGradient id="paint1_linear_890_11947" x1="32.6257" y1="24.4995" x2="14.7521" y2="24.4995" gradientUnits="userSpaceOnUse">
<stop stop-color="#FFE000"/>
<stop offset="0.4087" stop-color="#FFBD00"/>
<stop offset="0.7754" stop-color="#FFA500"/>
<stop offset="1" stop-color="#FF9C00"/>
</linearGradient>
<linearGradient id="paint2_linear_890_11947" x1="25.9738" y1="26.1945" x2="9.162" y2="43.0063" gradientUnits="userSpaceOnUse">
<stop stop-color="#FF3A44"/>
<stop offset="1" stop-color="#C31162"/>
</linearGradient>
<linearGradient id="paint3_linear_890_11947" x1="13.0238" y1="9.85558" x2="20.5307" y2="17.3625" gradientUnits="userSpaceOnUse">
<stop stop-color="#32A071"/>
<stop offset="0.0685" stop-color="#2DA771"/>
<stop offset="0.4762" stop-color="#15CF74"/>
<stop offset="0.8009" stop-color="#06E775"/>
<stop offset="1" stop-color="#00F076"/>
</linearGradient>
</defs>
</svg>
