<svg class="w-[24px] h-[24px]" xmlns="http://www.w3.org/2000/svg" xmlns:xlink="http://www.w3.org/1999/xlink" width="24"  height="24" ><defs><symbol width="24" height="24" viewBox="0 0 24 24" fill="none" xmlns="http://www.w3.org/2000/svg" id="search">
      <path d="M21.0002 21.0001L16.6572 16.6571M16.6572 16.6571C17.4001 15.9142 17.9894 15.0323 18.3914 14.0616C18.7935 13.091 19.0004 12.0507 19.0004 11.0001C19.0004 9.94948 18.7935 8.90917 18.3914 7.93854C17.9894 6.96791 17.4001 6.08597 16.6572 5.34308C15.9143 4.6002 15.0324 4.01091 14.0618 3.60886C13.0911 3.20681 12.0508 2.99988 11.0002 2.99988C9.9496 2.99988 8.90929 3.20681 7.93866 3.60886C6.96803 4.01091 6.08609 4.6002 5.34321 5.34308C3.84288 6.84341 3 8.8783 3 11.0001C3 13.1219 3.84288 15.1568 5.34321 16.6571C6.84354 18.1574 8.87842 19.0003 11.0002 19.0003C13.122 19.0003 15.1569 18.1574 16.6572 16.6571Z" stroke-width="1.5" stroke-linecap="round" stroke-linejoin="round"></path>
    </symbol></defs><use xlink:href="#search" width="100%" height="100%" stroke="#FFFFFF"></use></svg>