<svg class="w-[155px] h-[20px]" xmlns="http://www.w3.org/2000/svg" xmlns:xlink="http://www.w3.org/1999/xlink" width="155"  height="20" ><defs><symbol id="logowhite" width="155" height="20" viewBox="0 0 155 20" fill="none" xmlns="http://www.w3.org/2000/svg">
      <g clip-path="url(#clip0_753_12391)">
        <path d="M20.9337 19.7058L16.285 19.7352L16.0795 8.4478L11.8907 19.7352H9.12644L4.9119 8.58839L4.70512 19.7352H0L0.0687987 0.25H6.38846L10.5665 12.2395L14.8786 0.25H20.4824L20.9337 19.7058Z" fill="white"></path>
        <path d="M37.535 19.7337H24.2534V0.25H37.1615L37.1851 4.87888H28.9534V7.97052H36.1184V12.2157H28.9603V15.1139H37.535V19.7337Z" fill="white"></path>
        <path d="M47.3138 19.7351H39.9761V0.256104H47.2875C50.108 0.256104 52.3996 1.13407 54.1625 2.90392C55.9429 4.67377 56.833 7.06306 56.833 10.0718C56.833 13.0805 55.9429 15.4798 54.1625 17.2692C52.3996 19.0391 50.1168 19.7351 47.3138 19.7351ZM47.2875 15.4993C48.7857 15.4993 49.9758 14.9782 50.8571 13.936C51.7386 12.874 52.1793 11.586 52.1793 10.0718C52.1793 8.47891 51.7562 7.18105 50.9101 6.17814C50.0638 5.17522 48.8652 4.67377 47.3138 4.67377H44.4316V15.4993H47.2875Z" fill="white"></path>
        <path d="M63.0659 19.75H58.4829V0.25696L62.9465 0.25L63.0659 19.75Z" fill="white"></path>
        <path d="M84.235 19.75H79.2797L78.3267 16.6067H70.6596L69.7213 19.75H64.7524L71.3467 0.25H77.6367L84.235 19.75ZM76.844 12.0503L74.4462 4.62033L72.2099 12.0503H76.844Z" fill="white"></path>
        <path d="M119.095 19.75H114.202L113.247 16.5053H105.603L104.503 19.75H99.7354L106.304 0.25H112.557L119.095 19.75ZM111.809 12.0378L109.383 4.46424L107.095 12.0378H111.809Z" fill="white"></path>
        <path d="M154.82 19.7476H149.615L145.131 12.8395L142.752 15.9329V19.7476H138.229V0.25H142.746L142.835 8.93197L149.395 0.25H155L148.16 8.93197L154.82 19.7476Z" fill="white"></path>
        <path fill-rule="evenodd" clip-rule="evenodd" d="M93.5584 0.25H86.1006V4.71508V4.99258V10.6648V15.4014V19.7228H90.4611V15.4014H93.5584C94.5023 15.4014 95.4373 15.2054 96.309 14.8247C97.1816 14.444 97.9741 13.886 98.6418 13.1825C99.3095 12.479 99.8386 11.6439 100.2 10.7247C100.562 9.8057 100.747 8.82047 100.747 7.82567C100.747 6.83089 100.562 5.84568 100.2 4.92663C99.8386 4.00747 99.3095 3.17238 98.6418 2.46888C97.9741 1.76539 97.1816 1.20738 96.309 0.826712C95.4373 0.44594 94.5023 0.25 93.5584 0.25ZM90.4611 10.6648H93.5584V10.6556C93.9106 10.6556 94.2605 10.5824 94.5855 10.4403C94.9121 10.298 95.2075 10.0895 95.4573 9.82676C95.7063 9.56394 95.9039 9.25201 96.0393 8.90868C96.1745 8.56536 96.2434 8.19736 96.2434 7.82567C96.2434 7.45404 96.1745 7.08607 96.0393 6.74272C95.9039 6.39938 95.7063 6.08745 95.4573 5.82467C95.2075 5.56188 94.9121 5.35344 94.5855 5.21113C94.2605 5.06894 93.9106 4.99578 93.5584 4.99578V4.99258H90.4611V10.6648Z" fill="white"></path>
        <path fill-rule="evenodd" clip-rule="evenodd" d="M120.843 0.25H128.899C129.822 0.25 130.737 0.436332 131.591 0.798291C132.444 1.16035 133.22 1.69092 133.873 2.3598C134.526 3.02878 135.044 3.82285 135.398 4.69677C135.752 5.57078 135.934 6.50745 135.934 7.45343C135.934 8.39944 135.752 9.33604 135.398 10.2101C135.044 11.084 134.526 11.8781 133.873 12.547C133.483 12.9461 133.05 13.2959 132.583 13.5901L136.656 19.6072L131.364 19.7331L128.136 14.6569H125.427V19.75H120.843V14.6569V9.95587V4.95095V0.25ZM125.427 4.95095V9.95448L128.899 9.95349C129.22 9.95349 129.537 9.88891 129.834 9.76331C130.13 9.63755 130.399 9.45343 130.625 9.22127C130.7 9.14552 130.769 9.06518 130.832 8.98075C130.892 8.9009 130.948 8.81744 130.998 8.7307C131.058 8.62808 131.11 8.52101 131.154 8.41018C131.202 8.29516 131.239 8.17703 131.269 8.05677C131.279 8.01594 131.287 7.97487 131.295 7.93356C131.325 7.77575 131.34 7.61494 131.34 7.45343C131.34 7.1251 131.278 6.79997 131.154 6.49664C131.032 6.19334 130.853 5.91773 130.625 5.68557C130.399 5.45341 130.13 5.26927 129.834 5.14359C129.537 5.018 129.22 4.95334 128.899 4.95095H125.427Z" fill="white"></path>
      </g>
      <defs>
        <clipPath id="clip0_753_12391">
          <rect width="155" height="20" fill="white"></rect>
        </clipPath>
      </defs>
    </symbol></defs><use xlink:href="#logowhite" width="100%" height="100%"></use></svg>