<svg xmlns:xlink="http://www.w3.org/1999/xlink" width="24" height="24" viewBox="0 0 24 24" fill="none" xmlns="http://www.w3.org/2000/svg">
<path d="M18.375 22.25H18.875V21.75V11.25V10.75H18.375H5.625H5.125V11.25V21.75V22.25H5.625H18.375ZM18.375 10.25H18.875V9.75V3V2.99941C18.8746 2.66817 18.7428 2.3506 18.5086 2.11638C18.2744 1.88215 17.9568 1.75039 17.6256 1.75H17.625L6.375 1.75L6.37441 1.75C6.04316 1.75039 5.7256 1.88215 5.49138 2.11638C5.25715 2.3506 5.12539 2.66816 5.125 2.99941V3V9.75V10.25H5.625H18.375ZM5.1383 1.7633C5.46642 1.43519 5.91127 1.25059 6.37529 1.25H17.6247C18.0887 1.25059 18.5336 1.43519 18.8617 1.7633C19.1899 2.09148 19.3745 2.53644 19.375 3.00056V21.7494C19.3747 22.0147 19.2692 22.269 19.0816 22.4566C18.894 22.6442 18.6397 22.7497 18.3744 22.75H5.62556C5.36029 22.7497 5.10596 22.6442 4.91839 22.4566C4.73087 22.2691 4.62537 22.0149 4.625 21.7497V3.00029C4.62559 2.53627 4.81019 2.09142 5.1383 1.7633Z" stroke="#D92E15" fill="none"></path>
<path d="M7.25 13.625H7.75V17.125H7.25V13.625ZM7.25 5.375H7.75V7.375H7.25V5.375Z" stroke="#D92E15" fill="none"></path>
</svg>