<svg class="tablet:w-[20px] tablet:h-[20px] w-[16px] h-[16px]" xmlns="http://www.w3.org/2000/svg" xmlns:xlink="http://www.w3.org/1999/xlink" width="20"  height="20" ><defs><symbol width="16" height="16" viewBox="0 0 16 16" fill="none" xmlns="http://www.w3.org/2000/svg" id="compare">
      <path d="M1.3335 11.3333V11.2332C1.3335 11.0222 1.3335 10.9167 1.34963 10.8139C1.36396 10.7227 1.38774 10.6332 1.42057 10.5468C1.45755 10.4496 1.5099 10.358 1.61458 10.1748L4.00016 6M1.3335 11.3333C1.3335 12.8061 2.5274 14 4.00016 14C5.47292 14 6.66683 12.8061 6.66683 11.3333M1.3335 11.3333V11.2C1.3335 11.0133 1.3335 10.92 1.36983 10.8487C1.40179 10.7859 1.45278 10.735 1.5155 10.703C1.5868 10.6667 1.68015 10.6667 1.86683 10.6667H6.1335C6.32018 10.6667 6.41352 10.6667 6.48483 10.703C6.54755 10.735 6.59854 10.7859 6.6305 10.8487C6.66683 10.92 6.66683 11.0133 6.66683 11.2V11.3333M4.00016 6L6.38575 10.1748C6.49043 10.358 6.54277 10.4496 6.57975 10.5468C6.61259 10.6332 6.63636 10.7227 6.65069 10.8139C6.66683 10.9167 6.66683 11.0222 6.66683 11.2332V11.3333M4.00016 6L12.0002 4.66667M9.3335 10V9.89987C9.3335 9.68888 9.3335 9.58338 9.34963 9.4806C9.36396 9.38934 9.38774 9.29982 9.42057 9.21348C9.45755 9.11623 9.5099 9.02463 9.61458 8.84144L12.0002 4.66667M9.3335 10C9.3335 11.4728 10.5274 12.6667 12.0002 12.6667C13.4729 12.6667 14.6668 11.4728 14.6668 10M9.3335 10V9.86667C9.3335 9.67998 9.3335 9.58664 9.36983 9.51534C9.40179 9.45262 9.45278 9.40162 9.5155 9.36966C9.5868 9.33333 9.68015 9.33333 9.86683 9.33333H14.1335C14.3202 9.33333 14.4135 9.33333 14.4848 9.36966C14.5475 9.40162 14.5985 9.45262 14.6305 9.51534C14.6668 9.58664 14.6668 9.67998 14.6668 9.86667V10M12.0002 4.66667L14.3857 8.84144C14.4904 9.02463 14.5428 9.11623 14.5798 9.21348C14.6126 9.29982 14.6364 9.38934 14.6507 9.4806C14.6668 9.58338 14.6668 9.68888 14.6668 9.89987V10M8.00016 2V5.33333" stroke-width="1.2" stroke-linecap="round" stroke-linejoin="round"></path>
    </symbol></defs><use xlink:href="#compare" width="100%" height="100%" stroke="#6C7178"></use></svg>