<svg class="w-[14px] h-[14px]" xmlns="http://www.w3.org/2000/svg" xmlns:xlink="http://www.w3.org/1999/xlink" width="14"  height="14" ><defs><symbol width="14" height="14" viewBox="0 0 14 14" fill="none" xmlns="http://www.w3.org/2000/svg" id="phone">
      <path d="M4.88849 5.16433C5.29449 6.00995 5.84795 6.80249 6.54887 7.50341C7.24979 8.20433 8.04234 8.75779 8.88795 9.16379C8.96068 9.19871 8.99705 9.21617 9.04307 9.22958C9.20661 9.27726 9.40743 9.24301 9.54593 9.14384C9.5849 9.11593 9.61824 9.08259 9.68493 9.01591C9.88886 8.81197 9.99083 8.71001 10.0934 8.64334C10.4801 8.39192 10.9786 8.39192 11.3652 8.64334C11.4678 8.71001 11.5698 8.81197 11.7737 9.01591L11.8874 9.12958C12.1974 9.43959 12.3524 9.5946 12.4366 9.76107C12.604 10.0921 12.604 10.4831 12.4366 10.8142C12.3524 10.9807 12.1974 11.1357 11.8874 11.4457L11.7954 11.5376C11.4865 11.8466 11.332 12.0011 11.122 12.119C10.8889 12.25 10.527 12.3441 10.2597 12.3433C10.0188 12.3426 9.85416 12.2958 9.5249 12.2024C7.75542 11.7002 6.08571 10.7526 4.69272 9.35956C3.29973 7.96657 2.35212 6.29686 1.84989 4.52738C1.75643 4.19812 1.70971 4.03349 1.70899 3.79261C1.70819 3.52531 1.80232 3.16336 1.93323 2.93031C2.05121 2.72029 2.20568 2.56582 2.51463 2.25687L2.60659 2.16492C2.91659 1.85491 3.0716 1.69991 3.23807 1.61571C3.56915 1.44825 3.96014 1.44825 4.29121 1.61571C4.45768 1.69991 4.61269 1.85491 4.9227 2.16492L5.03637 2.27859C5.24031 2.48253 5.34228 2.5845 5.40894 2.68703C5.66036 3.07372 5.66036 3.57223 5.40894 3.95891C5.34228 4.06145 5.24031 4.16342 5.03637 4.36736C4.96969 4.43404 4.93635 4.46738 4.90844 4.50635C4.80927 4.64485 4.77502 4.84567 4.8227 5.00921C4.83611 5.05523 4.85357 5.0916 4.88849 5.16433Z" stroke="#6C7178" stroke-linecap="round" stroke-linejoin="round"></path>
    </symbol></defs><use xlink:href="#phone" width="100%" height="100%" stroke="#6C7178"></use></svg>