<svg class="w-[16px] h-[16px]" xmlns="http://www.w3.org/2000/svg" xmlns:xlink="http://www.w3.org/1999/xlink" width="17"  height="16" ><defs><symbol width="17" height="16" viewBox="0 0 17 16" fill="none" xmlns="http://www.w3.org/2000/svg" id="staractive">
      <path d="M8.02193 2.30229C8.17559 1.991 8.25242 1.83535 8.35672 1.78562C8.44746 1.74236 8.55289 1.74236 8.64363 1.78562C8.74793 1.83535 8.82476 1.991 8.97842 2.30229L10.4362 5.2556C10.4816 5.3475 10.5042 5.39345 10.5374 5.42913C10.5667 5.46072 10.6019 5.48631 10.641 5.5045C10.6852 5.52503 10.7359 5.53244 10.8373 5.54726L14.0982 6.02389C14.4415 6.07408 14.6132 6.09917 14.6927 6.18304C14.7618 6.25601 14.7943 6.35628 14.7812 6.45593C14.766 6.57047 14.6417 6.69153 14.3931 6.93367L12.0345 9.23103C11.9609 9.30264 11.9242 9.33845 11.9004 9.38106C11.8794 9.41878 11.866 9.46022 11.8608 9.50309C11.8549 9.5515 11.8636 9.60208 11.8809 9.70324L12.4375 12.9482C12.4962 13.2904 12.5255 13.4615 12.4704 13.5631C12.4224 13.6514 12.3371 13.7134 12.2382 13.7317C12.1246 13.7528 11.9709 13.672 11.6636 13.5104L8.74841 11.9773C8.65758 11.9295 8.61217 11.9057 8.56432 11.8963C8.52196 11.888 8.47839 11.888 8.43602 11.8963C8.38818 11.9057 8.34276 11.9295 8.25193 11.9773L5.33678 13.5104C5.02944 13.672 4.87577 13.7528 4.76214 13.7317C4.66328 13.7134 4.57798 13.6514 4.52999 13.5631C4.47483 13.4615 4.50418 13.2904 4.56288 12.9482L5.11942 9.70324C5.13677 9.60208 5.14545 9.5515 5.13958 9.50309C5.13438 9.46022 5.1209 9.41878 5.0999 9.38106C5.07618 9.33845 5.03941 9.30264 4.96589 9.23103L2.6072 6.93367C2.3586 6.69153 2.23431 6.57047 2.21918 6.45593C2.20602 6.35628 2.23853 6.25601 2.30766 6.18304C2.38712 6.09917 2.55881 6.07408 2.90219 6.02389L6.16304 5.54726C6.26445 5.53244 6.31515 5.52503 6.35931 5.5045C6.39841 5.48631 6.4336 5.46072 6.46295 5.42913C6.4961 5.39345 6.51878 5.3475 6.56415 5.2556L8.02193 2.30229Z" fill="#FFA755" stroke="#FFA755" stroke-width="1.5" stroke-linecap="round" stroke-linejoin="round"></path>
    </symbol></defs><use xlink:href="#staractive" width="100%" height="100%"></use></svg>