<svg class="min-w-[14px] min-h-[14px] w-[14px] h-[14px]" xmlns="http://www.w3.org/2000/svg" xmlns:xlink="http://www.w3.org/1999/xlink" width="24"  height="24" ><defs><symbol xmlns="http://www.w3.org/2000/svg" width="24" height="24" viewBox="0 0 24 24" fill="none" id="product_cashback">
      <path d="M4 22.5H20C20.1971 22.5003 20.3922 22.4616 20.5743 22.3864C20.7564 22.3111 20.9219 22.2006 21.0612 22.0612C21.2006 21.9219 21.3111 21.7564 21.3864 21.5743C21.4616 21.3922 21.5003 21.1971 21.5 21V19H17C16.8029 19.0003 16.6078 18.9616 16.4257 18.8864C16.2436 18.8111 16.0781 18.7006 15.9388 18.5612C15.7994 18.4219 15.6889 18.2564 15.6136 18.0743C15.5384 17.8922 15.4997 17.6971 15.5 17.5V13.5C15.4997 13.3029 15.5384 13.1078 15.6136 12.9257C15.6889 12.7436 15.7994 12.5781 15.9388 12.4388C16.0781 12.2994 16.2436 12.1889 16.4257 12.1136C16.6078 12.0384 16.8029 11.9997 17 12H21.5V10C21.5003 9.80294 21.4616 9.60777 21.3864 9.42567C21.3111 9.24356 21.2006 9.07809 21.0612 8.93875C20.9219 8.79941 20.7564 8.68893 20.5743 8.61365C20.3922 8.53836 20.1971 8.49974 20 8.5H4C3.80294 8.49974 3.60777 8.53836 3.42566 8.61365C3.24356 8.68893 3.07809 8.79941 2.93875 8.93875C2.79941 9.07809 2.68893 9.24356 2.61365 9.42567C2.53836 9.60777 2.49974 9.80294 2.5 10V21C2.49974 21.1971 2.53836 21.3922 2.61365 21.5743C2.68893 21.7564 2.79941 21.9219 2.93875 22.0612C3.07809 22.2006 3.24356 22.3111 3.42566 22.3864C3.60777 22.4616 3.80294 22.5003 4 22.5Z" fill="#D92E15"></path>
      <path d="M16.5 13.5V17.5C16.4994 17.5659 16.5119 17.6312 16.5368 17.6921C16.5616 17.7531 16.5985 17.8085 16.645 17.855C16.6916 17.9016 16.747 17.9384 16.8079 17.9633C16.8689 17.9882 16.9342 18.0007 17 18H21.5V13H17C16.9342 12.9994 16.8689 13.0119 16.8079 13.0368C16.747 13.0616 16.6916 13.0985 16.645 13.145C16.5985 13.1916 16.5616 13.247 16.5368 13.3079C16.5119 13.3689 16.4994 13.4342 16.5 13.5ZM17.5 14.5C17.5 14.3674 17.5527 14.2402 17.6465 14.1465C17.7402 14.0527 17.8674 14 18 14C18.1326 14 18.2598 14.0527 18.3536 14.1465C18.4473 14.2402 18.5 14.3674 18.5 14.5V16.5C18.5 16.6326 18.4473 16.7598 18.3536 16.8536C18.2598 16.9473 18.1326 17 18 17C17.8674 17 17.7402 16.9473 17.6465 16.8536C17.5527 16.7598 17.5 16.6326 17.5 16.5V14.5Z" fill="#D92E15"></path>
      <path d="M18.5961 7.4H10.404C10.6939 6.66204 11.1778 6.01494 11.8055 5.52777C12.4697 5.01234 13.2673 4.69741 14.1044 4.62H14.1398V4.62035L14.1481 4.61966C14.1559 4.619 14.1637 4.61835 14.1714 4.61771C14.2828 4.60838 14.3828 4.6 14.4998 4.6L14.4998 4.6C15.4095 4.59959 16.2968 4.88155 17.0394 5.40695C17.7432 5.90496 18.2841 6.59842 18.5961 7.4Z" fill="#FFC046" stroke="url(#paint0_linear_5686_34725)" stroke-width="0.2"></path>
      <path d="M11.0956 1.89993C11.9446 2.2306 12.6689 2.81627 13.1698 3.57464C12.2348 3.80405 11.3738 4.27035 10.6701 4.92963C9.95 5.60426 9.42085 6.45649 9.13538 7.40009H5.33063C5.17448 6.95044 5.09646 6.47719 5.10013 6.00086L5.10013 6.00007C5.09989 5.04227 5.41227 4.11056 5.98981 3.34647C6.56735 2.58238 7.37849 2.02767 8.30003 1.76658C9.22156 1.5055 10.2031 1.55232 11.0956 1.89993Z" fill="#FFC046" stroke="url(#paint1_linear_5686_34725)" stroke-width="0.2"></path>
      <defs>
        <linearGradient id="paint0_linear_5686_34725" x1="14.4998" y1="4.5" x2="14.4998" y2="7.5" gradientUnits="userSpaceOnUse">
          <stop stop-color="#F2A30A"></stop>
          <stop offset="1" stop-color="#FFC046"></stop>
        </linearGradient>
        <linearGradient id="paint1_linear_5686_34725" x1="9.16506" y1="1.5" x2="9.16506" y2="7.50009" gradientUnits="userSpaceOnUse">
          <stop stop-color="#F2A30A"></stop>
          <stop offset="1" stop-color="#FFC046"></stop>
        </linearGradient>
      </defs>
    </symbol></defs><use xlink:href="#product_cashback" width="100%" height="100%"></use></svg>